<svg width="118.8974609375px" height="173.6375px" xmlns="http://www.w3.org/2000/svg" viewBox="190.55126953125 -11.818749999999994 118.8974609375 173.6375" style="background: rgb(29, 63, 114);" preserveAspectRatio="xMidYMid"><defs><filter id="editing-vr"><feFlood flood-color="#d8ebf9" flood-opacity="0.7" result="c1"></feFlood><feFlood flood-color="#71c2cc" flood-opacity="0.7" result="c3"></feFlood><feComposite operator="in" in="c1" in2="SourceAlpha" result="text-c1"></feComposite><feComposite operator="in" in="c3" in2="SourceAlpha" result="text-c3"></feComposite><feOffset in="text-c1" dx="5" dy="-1" result="text1"></feOffset><feOffset in="text-c3" dx="-5" dy="1" result="text3"></feOffset><feBlend in="SourceGraphic" in2="text1" mode="multiply" result="text4"></feBlend><feBlend in="text4" in2="text3" mode="multiply"></feBlend></filter></defs><g filter="url(#editing-vr)"><g transform="translate(216.165625333786, 108.80500030517578)"><path d="M21.44 0L0.78 0L11.83-58.98L12.90-64.02L33.66-64.02L21.44 0ZM60.82-5.72L60.82-5.72L60.82-5.72Q58.20 1.94 48.11 1.94L48.11 1.94L48.11 1.94Q40.64 1.94 35.50-6.98L35.50-6.98L35.50-6.98Q30.26-15.91 29.29-30.46L29.29-30.46L29.29-30.46Q39.96-49.95 47.34-58.01L47.34-58.01L47.34-58.01Q54.42-65.67 61.79-65.67L61.79-65.67L61.79-65.67Q65.77-65.67 68.63-63.54L68.63-63.54L68.63-63.54Q71.49-61.40 72.17-58.01L72.17-58.01L72.17-58.01Q68.87-56.65 67.32-55.58L67.32-55.58L67.32-55.58Q63.44-52.67 58.20-46.17L58.20-46.17L49.37-35.60L49.37-35.60Q47.24-33.08 46.37-31.91L46.37-31.91L46.37-31.91Q47.82-23.77 52.19-15.71L52.19-15.71L52.19-15.71Q56.36-8.05 60.82-5.72Z" fill="#5699d2"></path></g></g><style>text {
  font-size: 64px;
  font-family: Arial Black;
  dominant-baseline: central;
  text-anchor: middle;
}</style></svg>